# xmcd
#
# Track frame offsets: 
#        150
#        12712
#        27615
#        40137
#        51387
#        63988
#        74405
#        88828
#        102701
#        114196
#        128132
#        142082
#
# Disc length: 2058 seconds
#
# Revision: 0
# Processed by: cddbd v1.5.2PL0 Copyright (c) Steve Scherf et al.
# Submitted via: ExactAudioCopy v1.0b1
#
DISCID=b808080c
DTITLE=Various Artist - The Motown Box - Disc Four: B-Sides And Rare 
DTITLE=Stuff
DYEAR=2005
DGENRE=R&B
TTITLE0=The Miracles - I've Been Good To You (2005 stereo mix)
TTITLE1=Stevie Wonder - Purple Raindrops (2005 stereo mix)
TTITLE2=Marvin Gaye - Pretty Little Baby (2005 stereo mix)
TTITLE3=The Supremes - Let Me Go The Right Way (stereo)
TTITLE4=The Temptations - You'll Lose A Precious Love (2005 stereo mix
TTITLE4=)
TTITLE5=Chris Clark - Love's Gone Bad (stereo)
TTITLE6=Martha and The Vandellas - Third Finger, Left Hand (2005 stereo 
TTITLE6=mix)
TTITLE7=Gladys Knight and The Pips - Steppin' Closer To Your Heart (2005
TTITLE7=stereo mix)
TTITLE8=The Four Tops - Since You've Been Gone (stereo)
TTITLE9=The Andantes - (Like A) Nightmare (2005 stereo mix)
TTITLE10=Brenda Holloway - Just Look What You've Done (2005 stereo mix
TTITLE10=)
TTITLE11=The Marvelettes - Forever (2005 stereo mix)
EXTD=
EXTT0=
EXTT1=
EXTT2=
EXTT3=
EXTT4=
EXTT5=
EXTT6=
EXTT7=
EXTT8=
EXTT9=
EXTT10=
EXTT11=
PLAYORDER=
